<svg id="visual" viewBox="0 0 1920 1080" width="1920" height="1080" xmlns="http://www.w3.org/2000/svg" xmlns:xlink="http://www.w3.org/1999/xlink" version="1.1"><rect x="0" y="0" width="1920" height="1080" fill="#FFFFFF"></rect><path d="M0 723L64 730.8C128 738.7 256 754.3 384 752.7C512 751 640 732 768 708.8C896 685.7 1024 658.3 1152 644.7C1280 631 1408 631 1536 652.5C1664 674 1792 717 1856 738.5L1920 760L1920 1081L1856 1081C1792 1081 1664 1081 1536 1081C1408 1081 1280 1081 1152 1081C1024 1081 896 1081 768 1081C640 1081 512 1081 384 1081C256 1081 128 1081 64 1081L0 1081Z" fill="#1976d2"></path><path d="M0 800L64 801.2C128 802.3 256 804.7 384 807.7C512 810.7 640 814.3 768 802.3C896 790.3 1024 762.7 1152 765.3C1280 768 1408 801 1536 807.2C1664 813.3 1792 792.7 1856 782.3L1920 772L1920 1081L1856 1081C1792 1081 1664 1081 1536 1081C1408 1081 1280 1081 1152 1081C1024 1081 896 1081 768 1081C640 1081 512 1081 384 1081C256 1081 128 1081 64 1081L0 1081Z" fill="#1976d2"></path><path d="M0 861L64 859.8C128 858.7 256 856.3 384 852.3C512 848.3 640 842.7 768 855.7C896 868.7 1024 900.3 1152 899.5C1280 898.7 1408 865.3 1536 864.8C1664 864.3 1792 896.7 1856 912.8L1920 929L1920 1081L1856 1081C1792 1081 1664 1081 1536 1081C1408 1081 1280 1081 1152 1081C1024 1081 896 1081 768 1081C640 1081 512 1081 384 1081C256 1081 128 1081 64 1081L0 1081Z" fill="#1976d2"></path><path d="M0 962L64 964.2C128 966.3 256 970.7 384 974.7C512 978.7 640 982.3 768 984.3C896 986.3 1024 986.7 1152 979.8C1280 973 1408 959 1536 958.7C1664 958.3 1792 971.7 1856 978.3L1920 985L1920 1081L1856 1081C1792 1081 1664 1081 1536 1081C1408 1081 1280 1081 1152 1081C1024 1081 896 1081 768 1081C640 1081 512 1081 384 1081C256 1081 128 1081 64 1081L0 1081Z" fill="#1976d2"></path></svg>