<svg id="visual" viewBox="0 0 960 540" width="960" height="540" xmlns="http://www.w3.org/2000/svg" xmlns:xlink="http://www.w3.org/1999/xlink" version="1.1"><path d="M0 396L22.8 392.5C45.7 389 91.3 382 137 384.2C182.7 386.3 228.3 397.7 274 405.8C319.7 414 365.3 419 411.2 407.7C457 396.3 503 368.7 548.8 357.3C594.7 346 640.3 351 686 359.3C731.7 367.7 777.3 379.3 823 378.8C868.7 378.3 914.3 365.7 937.2 359.3L960 353L960 541L937.2 541C914.3 541 868.7 541 823 541C777.3 541 731.7 541 686 541C640.3 541 594.7 541 548.8 541C503 541 457 541 411.2 541C365.3 541 319.7 541 274 541C228.3 541 182.7 541 137 541C91.3 541 45.7 541 22.8 541L0 541Z" fill="#0066FF" stroke-linecap="round" stroke-linejoin="miter"></path></svg>